<svg id="check_7699103_1_" data-name="check_7699103 (1)" xmlns="http://www.w3.org/2000/svg" width="24.5" height="24.5" viewBox="0 0 24.5 24.5">
  <path id="Path_61" data-name="Path 61" d="M23.873,12.637a4.221,4.221,0,0,0,.109-.555A4.988,4.988,0,0,0,24,11.448C23.911,2.04,21.68,0,12,0S.089,2.04,0,11.448a4.988,4.988,0,0,0,.016.633,4.219,4.219,0,0,0,.109.555c1.78,7.5,8.1,10.29,10.721,11.143a3.119,3.119,0,0,0,2.3,0c2.621-.853,8.941-3.648,10.721-11.143ZM22,11.467c-.044-4.747-.676-6.769-1.775-7.81C19.09,2.582,16.908,2.008,12,2.008s-7.09.574-8.223,1.648C2.678,4.7,2.046,6.72,2,11.467a3.43,3.43,0,0,0,0,.389.739.739,0,0,0,.012.075c.009.047.023.105.055.239,1.531,6.446,6.973,8.911,9.392,9.7.119.039.194.063.259.082s.091.025.108.029h0a1.279,1.279,0,0,0,.333,0h0c.017,0,.049-.011.108-.029s.14-.044.259-.082c2.419-.787,7.861-3.253,9.392-9.7.032-.134.045-.193.055-.239a.713.713,0,0,0,.012-.075,3.392,3.392,0,0,0,0-.389Z" transform="translate(0.25 0.25)" fill="#fff" fill-rule="evenodd"/>
  <path id="Path_61_-_Outline" data-name="Path 61 - Outline" d="M12,24.25a3.348,3.348,0,0,1-1.229-.233C8.1,23.148,1.691,20.305-.116,12.694a4.456,4.456,0,0,1-.114-.585,5.147,5.147,0,0,1-.018-.663C-.16,1.936,2.13-.25,12-.25s12.16,2.186,12.248,11.7a5.145,5.145,0,0,1-.018.664,4.458,4.458,0,0,1-.114.585C22.309,20.306,15.9,23.148,13.229,24.017A3.348,3.348,0,0,1,12,24.25Zm0-24A28.736,28.736,0,0,0,6.106.71,7.077,7.077,0,0,0,2.576,2.378,6.591,6.591,0,0,0,.795,5.75a25.387,25.387,0,0,0-.543,5.7,4.765,4.765,0,0,0,.015.6,3.991,3.991,0,0,0,.1.525C2.119,19.943,8.334,22.7,10.925,23.542a2.876,2.876,0,0,0,2.149,0c2.591-.843,8.806-3.6,10.555-10.963a3.994,3.994,0,0,0,.1-.525,4.761,4.761,0,0,0,.015-.6,25.388,25.388,0,0,0-.543-5.7,6.591,6.591,0,0,0-1.781-3.373A7.077,7.077,0,0,0,17.894.71,28.736,28.736,0,0,0,12,.25Zm0,21.992a1.016,1.016,0,0,1-.214-.015h-.007c-.033-.007-.074-.018-.127-.034s-.14-.044-.264-.084c-2.35-.764-7.985-3.257-9.558-9.878-.034-.142-.047-.2-.057-.247a.977.977,0,0,1-.016-.1,3.51,3.51,0,0,1-.005-.419C1.793,7,2.33,4.683,3.6,3.475S7.323,1.758,12,1.758s7.109.5,8.4,1.717S22.207,7,22.248,11.465a3.474,3.474,0,0,1-.005.42.954.954,0,0,1-.015.1c-.01.05-.024.111-.057.247-1.572,6.621-7.208,9.114-9.558,9.878-.124.04-.2.064-.265.084s-.094.027-.127.034h-.007A1.016,1.016,0,0,1,12,22.242Zm-.119-.506h.006a1.25,1.25,0,0,0,.226,0h.006l.086-.024c.064-.019.137-.043.253-.081,2.27-.738,7.712-3.144,9.226-9.518.03-.128.044-.188.053-.231a.475.475,0,0,0,.008-.053c0-.025.005-.046,0-.36-.05-5.354-.886-6.862-1.7-7.631S17.626,2.258,12,2.258s-7.227.8-8.051,1.58S2.3,6.115,2.252,11.469c0,.313,0,.335,0,.359a.492.492,0,0,0,.009.053c.009.042.021.1.053.232,1.514,6.375,6.956,8.78,9.226,9.518.116.038.189.062.253.08Z" transform="translate(0.25 0.25)" fill="#fff"/>
  <path id="Path_62" data-name="Path 62" d="M16.707,9.747a1,1,0,1,0-1.414-1.42L11,12.638l-1.293-1.3a1,1,0,0,0-1.414,1.42l2,2.008a1,1,0,0,0,1.414,0Z" transform="translate(0.25 0.25)" fill="#fff"/>
  <path id="Path_62_-_Outline" data-name="Path 62 - Outline" d="M16,7.783a1.24,1.24,0,0,1,.884.368,1.259,1.259,0,0,1,0,1.773l-5,5.021a1.247,1.247,0,0,1-1.769,0l-2-2.008a1.259,1.259,0,0,1,0-1.773,1.247,1.247,0,0,1,1.769,0L11,12.284l4.116-4.133A1.24,1.24,0,0,1,16,7.783Zm-5,7.029a.743.743,0,0,0,.53-.221l5-5.021a.758.758,0,0,0,0-1.067.747.747,0,0,0-1.06,0L11,12.992,9.53,11.516a.747.747,0,0,0-1.06,0,.758.758,0,0,0,0,1.067l2,2.008A.743.743,0,0,0,11,14.812Z" transform="translate(0.25 0.25)" fill="#fff"/>
</svg>