<svg xmlns="http://www.w3.org/2000/svg" width="23.402" height="23.4" viewBox="0 0 23.402 23.4">
<g id="dollar_518422" transform="translate(0.2 0.183)">
<g id="Group_90" data-name="Group 90" transform="translate(0 0.017)">
<g id="Group_89" data-name="Group 89" transform="translate(0 0)">
<path id="Path_41" data-name="Path 41" d="M174.166,119.651a.5.5,0,0,0,.5-.5v-.5h.3a2.447,2.447,0,0,0,1.072-.247,2.711,2.711,0,0,0,.856-.657,3.008,3.008,0,0,0,.565-.949,3.223,3.223,0,0,0,.207-1.147,3.257,3.257,0,0,0-.2-1.146,3.031,3.031,0,0,0-.566-.95,2.711,2.711,0,0,0-.856-.657,2.454,2.454,0,0,0-1.073-.247h-.3v-4h.3a1.464,1.464,0,0,1,.637.147,1.726,1.726,0,0,1,.542.417,2.058,2.058,0,0,1,.379.64.5.5,0,1,0,.938-.35,3.031,3.031,0,0,0-.566-.95,2.711,2.711,0,0,0-.856-.657,2.462,2.462,0,0,0-1.074-.247h-.3v-.5a.5.5,0,1,0-1,0v.5h-.3a2.447,2.447,0,0,0-1.072.247,2.711,2.711,0,0,0-.856.657,3.016,3.016,0,0,0-.566.95,3.3,3.3,0,0,0,0,2.292,3.031,3.031,0,0,0,.566.95,2.711,2.711,0,0,0,.856.657,2.454,2.454,0,0,0,1.073.247h.3v4h-.3a1.464,1.464,0,0,1-.637-.147,1.726,1.726,0,0,1-.542-.417,2.058,2.058,0,0,1-.379-.64.5.5,0,1,0-.938.35,3.031,3.031,0,0,0,.566.95,2.711,2.711,0,0,0,.856.657,2.462,2.462,0,0,0,1.074.247h.3v.5A.5.5,0,0,0,174.166,119.651Zm.5-6h.3a1.464,1.464,0,0,1,.637.147,1.726,1.726,0,0,1,.542.417,2.073,2.073,0,0,1,.38.641,2.279,2.279,0,0,1,.141.8,2.244,2.244,0,0,1-.143.8,2.07,2.07,0,0,1-.379.64,1.726,1.726,0,0,1-.542.417,1.46,1.46,0,0,1-.636.147h-.3Zm-1.3-1a1.464,1.464,0,0,1-.637-.147,1.726,1.726,0,0,1-.542-.417,2.074,2.074,0,0,1-.38-.641,2.279,2.279,0,0,1-.141-.8,2.244,2.244,0,0,1,.143-.8,2.07,2.07,0,0,1,.379-.64,1.726,1.726,0,0,1,.542-.417,1.46,1.46,0,0,1,.636-.147h.3v4Z" transform="translate(-162.665 -101.651)" fill="#5c5b6b"></path>
<path id="Path_41_-_Outline" data-name="Path 41 - Outline" d="M174.166,119.851a.7.7,0,0,1-.7-.7v-.3h-.1a2.665,2.665,0,0,1-1.161-.267,2.911,2.911,0,0,1-.92-.705,3.233,3.233,0,0,1-.6-1.012.7.7,0,1,1,1.313-.49,1.863,1.863,0,0,0,.343.579,1.528,1.528,0,0,0,.479.369,1.262,1.262,0,0,0,.549.127h.1v-3.6h-.1a2.656,2.656,0,0,1-1.16-.267,2.911,2.911,0,0,1-.92-.705,3.233,3.233,0,0,1-.6-1.012,3.5,3.5,0,0,1,0-2.433,3.217,3.217,0,0,1,.6-1.012,2.909,2.909,0,0,1,.919-.7,2.648,2.648,0,0,1,1.159-.267h.1v-.3a.7.7,0,1,1,1.4,0v.3h.1a2.664,2.664,0,0,1,1.161.267,2.91,2.91,0,0,1,.92.705,3.233,3.233,0,0,1,.6,1.012.7.7,0,1,1-1.313.49,1.863,1.863,0,0,0-.343-.579,1.527,1.527,0,0,0-.479-.369,1.262,1.262,0,0,0-.549-.127h-.1v3.6h.1a2.656,2.656,0,0,1,1.16.267,2.911,2.911,0,0,1,.92.705,3.233,3.233,0,0,1,.6,1.012,3.494,3.494,0,0,1,0,2.434,3.2,3.2,0,0,1-.6,1.01,2.91,2.91,0,0,1-.919.7,2.648,2.648,0,0,1-1.159.267h-.1v.3A.7.7,0,0,1,174.166,119.851Zm-2.826-3.53a.3.3,0,0,0-.283.406,2.834,2.834,0,0,0,.529.888,2.512,2.512,0,0,0,.793.609,2.267,2.267,0,0,0,.987.227h.5v.7a.3.3,0,0,0,.6,0v-.7h.5a2.251,2.251,0,0,0,.985-.227,2.512,2.512,0,0,0,.793-.609,2.8,2.8,0,0,0,.528-.886,3.094,3.094,0,0,0,0-2.154,2.836,2.836,0,0,0-.529-.888,2.513,2.513,0,0,0-.793-.609,2.259,2.259,0,0,0-.986-.227h-.5v-4.4h.5a1.66,1.66,0,0,1,.724.167,1.927,1.927,0,0,1,.606.465,2.262,2.262,0,0,1,.416.7.3.3,0,0,0,.281.2.3.3,0,0,0,.283-.406,2.835,2.835,0,0,0-.529-.888,2.512,2.512,0,0,0-.793-.609,2.267,2.267,0,0,0-.987-.227h-.5v-.7a.3.3,0,1,0-.6,0v.7h-.5a2.251,2.251,0,0,0-.985.227,2.512,2.512,0,0,0-.793.609,2.821,2.821,0,0,0-.529.888,3.1,3.1,0,0,0,0,2.152,2.835,2.835,0,0,0,.529.888,2.513,2.513,0,0,0,.793.609,2.259,2.259,0,0,0,.986.227h.5v4.4h-.5a1.66,1.66,0,0,1-.724-.167,1.928,1.928,0,0,1-.606-.465,2.262,2.262,0,0,1-.416-.7A.3.3,0,0,0,171.34,116.321Zm3.626,1.53h-.5v-4.4h.5a1.66,1.66,0,0,1,.724.167,1.927,1.927,0,0,1,.606.465,2.279,2.279,0,0,1,.417.7,2.48,2.48,0,0,1,.154.865,2.447,2.447,0,0,1-.156.867,2.268,2.268,0,0,1-.415.7,1.927,1.927,0,0,1-.605.465A1.659,1.659,0,0,1,174.966,117.851Zm-.1-.4h.1a1.261,1.261,0,0,0,.549-.127,1.527,1.527,0,0,0,.478-.369,1.87,1.87,0,0,0,.342-.578,2.049,2.049,0,0,0,.13-.726,2.081,2.081,0,0,0-.129-.726,1.879,1.879,0,0,0-.343-.579,1.527,1.527,0,0,0-.479-.369,1.261,1.261,0,0,0-.549-.127h-.1Zm-1-4.6h-.5a1.66,1.66,0,0,1-.724-.167,1.927,1.927,0,0,1-.606-.465,2.279,2.279,0,0,1-.417-.7,2.481,2.481,0,0,1-.154-.865,2.447,2.447,0,0,1,.156-.867,2.268,2.268,0,0,1,.415-.7,1.927,1.927,0,0,1,.605-.465,1.659,1.659,0,0,1,.724-.167h.5Zm-.5-4a1.261,1.261,0,0,0-.549.127,1.527,1.527,0,0,0-.478.369,1.87,1.87,0,0,0-.342.578,2.049,2.049,0,0,0-.13.726,2.081,2.081,0,0,0,.129.726,1.879,1.879,0,0,0,.343.579,1.527,1.527,0,0,0,.479.369,1.262,1.262,0,0,0,.549.127h.1v-3.6Z" transform="translate(-162.665 -101.651)" fill="#5c5b6b"></path>
<path id="Path_42" data-name="Path 42" d="M42.835,234.651a.5.5,0,0,0-.5.5c0,.363-.019.722-.054,1.073s-.09.7-.16,1.043a10.013,10.013,0,0,1-.258,1.006c-.1.328-.221.651-.353.964s-.28.62-.443.919-.336.586-.526.866-.391.549-.6.808-.44.508-.679.746-.487.464-.746.678-.528.416-.809.6-.569.364-.865.526-.6.309-.918.441-.637.251-.963.354-.665.188-1.008.258-.69.123-1.041.16a11.015,11.015,0,0,1-2.148,0c-.353-.037-.7-.09-1.043-.16a10.015,10.015,0,0,1-1.006-.258c-.328-.1-.651-.221-.964-.353s-.621-.281-.918-.441-.587-.338-.867-.528-.549-.391-.808-.6-.508-.44-.746-.679-.464-.487-.678-.746-.415-.528-.6-.808c-.081-.119-.15-.247-.225-.37h2.932a.5.5,0,1,0,0-1h-4a.5.5,0,0,0-.5.5v4a.5.5,0,0,0,1,0v-2.522c.2.289.4.569.627.837.234.284.481.557.741.816s.532.507.816.742.579.455.885.661.622.4.949.577.661.338,1.006.484.7.274,1.057.387.728.206,1.1.283a11.531,11.531,0,0,0,1.143.174,11.4,11.4,0,0,0,1.174.061c.4,0,.788-.021,1.177-.06s.767-.1,1.141-.174.741-.172,1.1-.283.712-.242,1.056-.388.68-.307,1.006-.484.642-.369.947-.575.6-.428.886-.663.557-.481.816-.741.507-.532.742-.816.455-.579.661-.885.4-.623.575-.948a11.124,11.124,0,0,0,.486-1.007q.217-.515.387-1.057t.283-1.1a11.532,11.532,0,0,0,.174-1.143c.038-.386.059-.778.059-1.174A.5.5,0,0,0,42.835,234.651Z" transform="translate(-20.333 -223.652)" fill="#5c5b6b"></path>
<path id="Path_42_-_Outline" data-name="Path 42 - Outline" d="M42.835,234.451a.7.7,0,0,1,.7.7c0,.388-.02.789-.06,1.194-.039.383-.1.775-.177,1.163s-.174.751-.288,1.121-.247.728-.394,1.076a11.368,11.368,0,0,1-.495,1.025c-.177.326-.373.65-.585.964s-.432.608-.673.9-.488.563-.755.83-.537.513-.831.754-.592.466-.9.675-.634.406-.963.585-.669.342-1.023.492-.714.282-1.075.395c-.377.115-.755.212-1.123.288-.388.079-.779.138-1.161.177-.4.04-.807.061-1.2.061a11.644,11.644,0,0,1-1.195-.062c-.382-.038-.774-.1-1.162-.177s-.752-.174-1.121-.288-.728-.247-1.076-.394-.7-.316-1.024-.493-.651-.375-.965-.587-.608-.432-.9-.672-.563-.488-.83-.755-.512-.537-.754-.831c-.091-.11-.182-.224-.273-.343v1.9a.7.7,0,0,1-1.4,0v-4a.7.7,0,0,1,.7-.7h4a.7.7,0,1,1,0,1.4h-2.58l.038.057c.173.258.372.525.593.794.205.249.429.5.665.732s.466.445.732.666.529.414.792.591.549.352.852.519c.285.154.588.3.9.432s.622.245.945.346a9.853,9.853,0,0,0,.986.253c.329.068.674.12,1.024.157a10.875,10.875,0,0,0,2.108,0c.349-.037.693-.09,1.021-.157s.668-.154.989-.253.634-.217.945-.347.6-.271.9-.433.585-.338.848-.516.524-.371.794-.593c.248-.205.495-.429.732-.665s.445-.466.666-.732.414-.529.591-.792.357-.556.516-.85.3-.578.435-.9c.128-.3.245-.622.346-.945a9.845,9.845,0,0,0,.253-.986c.068-.329.12-.674.157-1.025s.053-.706.053-1.052A.7.7,0,0,1,42.835,234.451Zm-11,12c.377,0,.767-.02,1.157-.059.369-.037.746-.095,1.121-.171.356-.073.721-.167,1.085-.278.347-.108.7-.237,1.036-.381s.675-.305.989-.476.631-.363.931-.565.591-.421.87-.651.553-.479.8-.728.5-.529.73-.8.451-.575.649-.869.394-.616.565-.932a10.969,10.969,0,0,0,.478-.99c.142-.336.27-.686.38-1.039s.2-.721.278-1.083.134-.753.171-1.123c.038-.391.058-.779.058-1.154a.3.3,0,1,0-.6,0c0,.359-.018.727-.055,1.093s-.093.722-.163,1.063a10.247,10.247,0,0,1-.263,1.025c-.106.336-.227.666-.36.982-.144.337-.291.643-.452.937s-.346.6-.536.883-.39.549-.614.822-.456.526-.693.761-.5.477-.76.691c-.281.231-.551.432-.825.616s-.569.365-.88.535-.626.32-.937.45-.652.256-.98.36-.681.192-1.028.263-.7.125-1.06.163a11.263,11.263,0,0,1-2.189,0c-.365-.038-.722-.093-1.063-.163a10.252,10.252,0,0,1-1.025-.263c-.336-.106-.666-.227-.982-.36s-.638-.289-.935-.449c-.315-.173-.612-.354-.885-.539s-.55-.39-.822-.614-.526-.456-.761-.693-.477-.5-.691-.76c-.229-.28-.436-.557-.615-.824-.057-.083-.107-.17-.156-.254-.024-.041-.048-.083-.073-.124l-.185-.3h3.288a.3.3,0,0,0,0-.6h-4a.3.3,0,0,0-.3.3v4a.3.3,0,0,0,.6,0v-3.171l.365.536c.208.306.41.574.616.822.234.284.479.554.728.8s.529.5.8.73.575.451.869.649.617.4.933.567.645.33.988.476.686.27,1.039.38.721.2,1.083.278.753.134,1.123.171A11.243,11.243,0,0,0,31.834,246.452Z" transform="translate(-20.333 -223.652)" fill="#5c5b6b"></path>
<path id="Path_43" data-name="Path 43" d="M1.054,10.443c.037-.353.09-.7.16-1.043a10.012,10.012,0,0,1,.258-1.006c.1-.328.22-.651.352-.964s.281-.621.442-.918.338-.587.528-.867.391-.549.6-.808.44-.508.679-.746.487-.464.746-.678.529-.416.809-.6.569-.364.865-.526.605-.309.918-.442.637-.251.963-.353S9.042,1.3,9.385,1.23s.69-.123,1.041-.16a11.015,11.015,0,0,1,2.148,0c.353.037.7.09,1.043.16a10.012,10.012,0,0,1,1.006.258c.328.1.651.221.964.353s.621.281.918.441.587.338.867.528.549.391.808.6.508.44.746.679.464.487.678.746.416.528.6.809c.081.119.149.247.225.37H17.5a.5.5,0,1,0,0,1h4a.5.5,0,0,0,.5-.5v-4a.5.5,0,1,0-1,0V5.038c-.2-.289-.4-.569-.627-.837-.234-.284-.481-.557-.741-.816s-.532-.508-.817-.743-.579-.455-.885-.661-.622-.4-.949-.577-.661-.338-1.006-.484-.7-.274-1.057-.387-.728-.206-1.1-.283A11.532,11.532,0,0,0,12.674.076a11.85,11.85,0,0,0-2.352,0c-.386.039-.767.1-1.141.174s-.739.171-1.1.283S7.368.775,7.024.92s-.68.307-1.006.484-.641.37-.947.576-.6.428-.885.663-.557.481-.817.741-.507.532-.742.817-.455.579-.661.884-.4.622-.577.95S1.05,6.7.9,7.04.629,7.736.517,8.1.311,8.825.234,9.2A11.532,11.532,0,0,0,.06,10.342,11.667,11.667,0,0,0,0,11.516a.5.5,0,1,0,1,0C1,11.153,1.019,10.794,1.054,10.443Z" transform="translate(0 -0.017)" fill="#5c5b6b"></path>
<path id="Path_43_-_Outline" data-name="Path 43 - Outline" d="M.5,12.216a.7.7,0,0,1-.7-.7,11.916,11.916,0,0,1,.061-1.194c.038-.383.1-.774.177-1.163s.174-.751.288-1.121S.569,7.32.719,6.963s.32-.7.494-1.023.366-.639.587-.966c.207-.306.433-.609.672-.9s.492-.568.755-.831.545-.519.832-.754.59-.465.9-.674.645-.413.964-.586S6.6.881,6.946.735,7.662.453,8.02.342,8.758.133,9.14.054,9.919-.085,10.3-.123a12.107,12.107,0,0,1,2.392,0c.383.038.774.1,1.163.177s.751.174,1.121.288.728.247,1.076.394.7.316,1.024.493.651.375.965.587.608.432.9.673.558.484.831.756.513.537.754.831c.091.11.182.224.273.343v-1.9a.7.7,0,1,1,1.4,0v4a.7.7,0,0,1-.7.7h-4a.7.7,0,0,1,0-1.4h2.581l-.038-.057c-.177-.265-.371-.524-.593-.795-.205-.248-.429-.495-.665-.732s-.466-.445-.732-.666-.529-.414-.792-.591-.549-.352-.852-.519c-.285-.154-.589-.3-.9-.432s-.622-.245-.945-.346a9.845,9.845,0,0,0-.986-.253c-.329-.068-.674-.12-1.024-.157a10.872,10.872,0,0,0-2.108,0c-.349.037-.693.09-1.021.157s-.668.154-.989.253-.644.218-.944.346-.616.279-.9.434c-.3.164-.586.338-.848.516s-.525.373-.795.593c-.248.2-.494.429-.732.665s-.445.466-.666.732-.418.535-.59.792-.353.549-.519.852c-.153.283-.3.586-.433.9s-.245.624-.345.945a9.844,9.844,0,0,0-.253.986c-.068.329-.12.674-.157,1.024s-.053.707-.053,1.052A.7.7,0,0,1,.5,12.216Zm11-12c-.388,0-.777.019-1.158.057S9.6.369,9.22.446s-.733.17-1.082.278S7.444.959,7.1,1.1s-.666.3-.988.475-.621.358-.931.566-.591.421-.869.651-.548.473-.8.728-.5.524-.729.8-.45.573-.65.869c-.213.316-.4.621-.567.933s-.329.642-.477.989S.815,7.812.708,8.156.5,8.878.43,9.239.3,9.992.259,10.362A11.514,11.514,0,0,0,.2,11.516a.3.3,0,0,0,.6,0c0-.359.018-.727.055-1.093S.948,9.7,1.018,9.36a10.244,10.244,0,0,1,.263-1.025c.1-.333.224-.663.359-.982s.291-.641.45-.936c.173-.315.354-.612.538-.884s.379-.536.613-.822.456-.526.693-.761.5-.477.76-.691c.28-.229.557-.436.825-.616s.569-.365.88-.535c.3-.161.611-.313.936-.451s.643-.254.982-.36S9,1.1,9.345,1.034s.7-.125,1.06-.163a11.261,11.261,0,0,1,2.189,0c.365.038.722.093,1.063.163a10.245,10.245,0,0,1,1.025.263c.336.106.666.227.982.36s.638.289.935.449c.315.173.612.354.885.539s.549.39.822.614.526.456.761.693.477.5.691.76c.231.281.432.551.616.825.054.079.1.161.148.241.026.045.053.091.081.135l.188.305H17.5a.3.3,0,1,0,0,.6h4a.3.3,0,0,0,.3-.3v-4a.3.3,0,1,0-.6,0V5.686l-.365-.536c-.208-.306-.41-.574-.616-.822-.234-.284-.479-.554-.728-.8s-.534-.509-.8-.73-.575-.451-.869-.649-.617-.4-.933-.567-.645-.33-.988-.475-.686-.27-1.039-.38-.721-.2-1.083-.278S13.024.312,12.654.275A11.543,11.543,0,0,0,11.5.217Z" transform="translate(0 -0.017)" fill="#5c5b6b"></path>
</g>
</g>
</g>
</svg>