<svg id="Group_88" data-name="Group 88" xmlns="http://www.w3.org/2000/svg" xmlns:xlink="http://www.w3.org/1999/xlink" width="106.149" height="39.409" viewBox="0 0 106.149 39.409">
<defs>
<clipPath id="clip-path">
<rect id="Rectangle_43" data-name="Rectangle 43" width="106.149" height="39.409" fill="#171a2d"></rect>
</clipPath>
</defs>
<g id="Group_87" data-name="Group 87" clip-path="url(#clip-path)">
<path id="Path_36" data-name="Path 36" d="M422.716,59.316a10.373,10.373,0,0,0-6.2-7.7,14.777,14.777,0,0,0-7.8-.929A10.882,10.882,0,0,0,400.1,56.4a26.819,26.819,0,0,0-1.092,2.591,13.136,13.136,0,0,0-.912-2.931,9.814,9.814,0,0,0-3.281-4.22,7.847,7.847,0,0,0-10.248,1.38c-.247.287-.49.576-.735.865a11.694,11.694,0,0,1-.114-2.278c.023-.547-.165-.772-.739-.765-2.081.023-4.162.019-6.242,0-.521,0-.721.155-.72.707q.021,14.754,0,29.508c0,.571.193.743.749.737,2.257-.023,4.515-.008,6.772-.01.772,0,.789-.019.789-.794,0-2.978,0-5.956.006-8.935,0-.2-.091-.425.131-.626a8.683,8.683,0,0,0,4.733,2.3,8.484,8.484,0,0,0,8.924-5.012,17.943,17.943,0,0,0,.99-3.085.764.764,0,0,1,.133.286,10.663,10.663,0,0,0,5.627,6.614,14.3,14.3,0,0,0,7.864,1.169,10.958,10.958,0,0,0,9.988-8.72c.15-.665.219-1.348.325-2.023V61.4c-.11-.694-.183-1.4-.336-2.081m-32,5.839a3.006,3.006,0,0,1-2.642,2.331,3.408,3.408,0,0,1-3.349-2.118,8.161,8.161,0,0,1-.474-3.17,11.952,11.952,0,0,1,.215-2.156,3.578,3.578,0,0,1,1.95-2.709,3.021,3.021,0,0,1,4.2,1.813,8.886,8.886,0,0,1,.506,3.1,10.468,10.468,0,0,1-.4,2.913m24.074-2.83a8.275,8.275,0,0,1-.756,3.762,3.436,3.436,0,0,1-3.683,1.965,3.387,3.387,0,0,1-2.89-2.44,9.851,9.851,0,0,1-.07-6.291,3.607,3.607,0,0,1,3.623-2.714,3.791,3.791,0,0,1,3.424,2.928,9.869,9.869,0,0,1,.217,1.033,8.836,8.836,0,0,1,.135,1.755" transform="translate(-316.903 -42.587)" fill="#171a2d"></path>
<path id="Path_37" data-name="Path 37" d="M24.675,5.7A10.538,10.538,0,0,0,17.594.413C16.535.182,15.46.156,14.4,0H.028C.019.2,0,.392,0,.587Q0,15.364,0,30.142c0,.775.017.793.789.794q6.269,0,12.539,0a16.7,16.7,0,0,0,5.717-.968c4.027-1.471,6.258-4.57,7.263-8.6a24.911,24.911,0,0,0,.486-8.46A17.306,17.306,0,0,0,24.675,5.7M17.427,19.5a7.7,7.7,0,0,1-.454,1.575c-.77,1.927-2.346,2.562-4.256,2.637-1,.039-2,.009-3,.041-.482.015-.593-.2-.591-.637.014-2.583.007-5.166.007-7.75,0-2.525.016-5.049-.013-7.574-.006-.577.184-.728.74-.724a20.748,20.748,0,0,1,3.283.179,4.83,4.83,0,0,1,4.262,4.376,23.573,23.573,0,0,1,.021,7.876" transform="translate(0 -0.001)" fill="#171a2d"></path>
<path id="Path_38" data-name="Path 38" d="M177.568,5.913q3.526-.024,7.053,0c.472,0,.612-.194.607-.633-.018-1.76-.016-3.52-.021-5.28h-8.245c0,1.76.007,3.52,0,5.28,0,.435.135.636.609.633" transform="translate(-149.138)" fill="#171a2d"></path>
<path id="Path_39" data-name="Path 39" d="M250.559,61.089a13.941,13.941,0,0,0-6.172-1.938,27.886,27.886,0,0,1-4.051-.7c-.88-.259-1.266-.736-1.24-1.423a1.631,1.631,0,0,1,1.39-1.533,5.316,5.316,0,0,1,2.506.076,2.435,2.435,0,0,1,1.68,1.441.784.784,0,0,0,.961.537c2.181-.246,4.364-.478,6.546-.709.35-.037.494-.159.35-.533a7.765,7.765,0,0,0-5.363-5.091,21.164,21.164,0,0,0-6.132-.513,14.049,14.049,0,0,0-5.492,1.131,6.417,6.417,0,0,0-3.8,6.393,6.334,6.334,0,0,0,4.333,5.547,60.919,60.919,0,0,0,6.7,1.54,7.1,7.1,0,0,1,2.191.64,1.519,1.519,0,0,1,.083,2.723,3.22,3.22,0,0,1-1.36.532c-2.567.325-3.747-.34-4.467-2.082a.8.8,0,0,0-.982-.565q-3.42.361-6.843.691c-.433.042-.53.226-.426.618a7.3,7.3,0,0,0,4.085,5.09,16.829,16.829,0,0,0,6.613,1.182,21.4,21.4,0,0,0,5.657-.588,8.109,8.109,0,0,0,4.828-3.235,6.473,6.473,0,0,0-1.6-9.232" transform="translate(-194.631 -42.718)" fill="#171a2d"></path>
<path id="Path_40" data-name="Path 40" d="M184.47,53.777q-3.385.035-6.771,0c-.542,0-.771.157-.77.734q.02,10.52,0,21.04c0,.53.172.72.715.715,2.257-.023,4.514-.008,6.771-.011.761,0,.782-.023.782-.8q0-5.2,0-10.4c0-3.507-.01-7.013.01-10.52,0-.556-.169-.759-.738-.753" transform="translate(-149.113 -45.323)" fill="#171a2d"></path>
</g>
</svg>